# xmcd
#
# Track frame offsets:
# 182
# 16292
# 35677
# 55250
# 72305
# 95410
# 110830
# 128542
# 146600
# 165585
# 191895
# 206797
# 227642
# 246875
# 264697
# 282655
#
# Disc length: 4013 seconds
#
#
# Revision: 0
# Processed by: cddbd v1.4PL0 Copyright (c) Steve Scherf et al.
# Submitted via: FreeRIP 2.52 
#
DISCID=f60fab10
DTITLE=Zé geraldo  - ao vivo 
DYEAR=1999
DGENRE=Blues
TTITLE0=cidadão
TTITLE1=lua curiosa
TTITLE2=peão do trecho
TTITLE3=senhorita
TTITLE4=como diria dyaln
TTITLE5=bolo de aniversario
TTITLE6=semente de tudo
TTITLE7=rio doce
TTITLE8=meu caminho de nuvens brancas
TTITLE9=milho aos pombos
TTITLE10=ninho dos sonhos
TTITLE11=nem pink floyd explica
TTITLE12=galho seco
TTITLE13=filhos da noite
TTITLE14=talismã
TTITLE15=ditadores
EXTD=
EXTT0=
EXTT1=
EXTT2=
EXTT3=
EXTT4=
EXTT5=
EXTT6=
EXTT7=
EXTT8=
EXTT9=
EXTT10=
EXTT11=
EXTT12=
EXTT13=
EXTT14=
EXTT15=
PLAYORDER=
